<svg xmlns="http://www.w3.org/2000/svg" xmlns:xlink="http://www.w3.org/1999/xlink" contentStyleType="text/css" data-diagram-type="DESCRIPTION" height="749px" preserveAspectRatio="none" style="width:542px;height:749px;background:#FFFFFF;" version="1.1" viewBox="0 0 542 749" width="542px" zoomAndPan="magnify"><title>Golle Ride Request Service API - Component Diagram</title><defs/><g><g class="title" data-source-line="1"><text fill="#000000" font-family="sans-serif" font-size="14" font-weight="bold" lengthAdjust="spacing" textLength="421.5859" x="56.3545" y="22.9951">Golle Ride Request Service API - Component Diagram</text></g><!--entity Controller--><g class="entity" data-entity="Controller" data-source-line="6" data-uid="ent0002" id="entity_Controller"><rect fill="#F1F1F1" height="46.2969" rx="2.5" ry="2.5" style="stroke:#181818;stroke-width:0.5;" width="109.1729" x="246.5757" y="44.2969"/><rect fill="#F1F1F1" height="10" style="stroke:#181818;stroke-width:0.5;" width="15" x="335.7485" y="49.2969"/><rect fill="#F1F1F1" height="2" style="stroke:#181818;stroke-width:0.5;" width="4" x="333.7485" y="51.2969"/><rect fill="#F1F1F1" height="2" style="stroke:#181818;stroke-width:0.5;" width="4" x="333.7485" y="55.2969"/><text fill="#000000" font-family="sans-serif" font-size="14" lengthAdjust="spacing" textLength="69.1729" x="261.5757" y="77.292">Controller</text></g><!--entity Validator--><g class="entity" data-entity="Validator" data-source-line="6" data-uid="ent0003" id="entity_Validator"><rect fill="#F1F1F1" height="46.2969" rx="2.5" ry="2.5" style="stroke:#181818;stroke-width:0.5;" width="103.2119" x="249.5757" y="150.2969"/><rect fill="#F1F1F1" height="10" style="stroke:#181818;stroke-width:0.5;" width="15" x="332.7876" y="155.2969"/><rect fill="#F1F1F1" height="2" style="stroke:#181818;stroke-width:0.5;" width="4" x="330.7876" y="157.2969"/><rect fill="#F1F1F1" height="2" style="stroke:#181818;stroke-width:0.5;" width="4" x="330.7876" y="161.2969"/><text fill="#000000" font-family="sans-serif" font-size="14" lengthAdjust="spacing" textLength="63.2119" x="264.5757" y="183.292">Validator</text></g><!--entity Data Access Layer--><g class="entity" data-entity="Data Access Layer" data-source-line="12" data-uid="ent0005" id="entity_Data Access Layer"><rect fill="#F1F1F1" height="46.2969" rx="2.5" ry="2.5" style="stroke:#181818;stroke-width:0.5;" width="169.5342" x="236.0757" y="468.2969"/><rect fill="#F1F1F1" height="10" style="stroke:#181818;stroke-width:0.5;" width="15" x="385.6099" y="473.2969"/><rect fill="#F1F1F1" height="2" style="stroke:#181818;stroke-width:0.5;" width="4" x="383.6099" y="475.2969"/><rect fill="#F1F1F1" height="2" style="stroke:#181818;stroke-width:0.5;" width="4" x="383.6099" y="479.2969"/><text fill="#000000" font-family="sans-serif" font-size="14" lengthAdjust="spacing" textLength="129.5342" x="251.0757" y="501.292">Data Access Layer</text></g><!--entity Orchestrator--><g class="entity" data-entity="Orchestrator" data-source-line="18" data-uid="ent0007" id="entity_Orchestrator"><rect fill="#F1F1F1" height="46.2969" rx="2.5" ry="2.5" style="stroke:#181818;stroke-width:0.5;" width="128.8877" x="315.5757" y="256.2969"/><rect fill="#F1F1F1" height="10" style="stroke:#181818;stroke-width:0.5;" width="15" x="424.4634" y="261.2969"/><rect fill="#F1F1F1" height="2" style="stroke:#181818;stroke-width:0.5;" width="4" x="422.4634" y="263.2969"/><rect fill="#F1F1F1" height="2" style="stroke:#181818;stroke-width:0.5;" width="4" x="422.4634" y="267.2969"/><text fill="#000000" font-family="sans-serif" font-size="14" lengthAdjust="spacing" textLength="88.8877" x="330.5757" y="289.292">Orchestrator</text></g><!--entity Business Logic Handlers--><g class="entity" data-entity="Business Logic Handlers" data-source-line="23" data-uid="ent0009" id="entity_Business Logic Handlers"><rect fill="#F1F1F1" height="46.2969" rx="2.5" ry="2.5" style="stroke:#181818;stroke-width:0.5;" width="209.8936" x="295.0757" y="362.2969"/><rect fill="#F1F1F1" height="10" style="stroke:#181818;stroke-width:0.5;" width="15" x="484.9692" y="367.2969"/><rect fill="#F1F1F1" height="2" style="stroke:#181818;stroke-width:0.5;" width="4" x="482.9692" y="369.2969"/><rect fill="#F1F1F1" height="2" style="stroke:#181818;stroke-width:0.5;" width="4" x="482.9692" y="373.2969"/><text fill="#000000" font-family="sans-serif" font-size="14" lengthAdjust="spacing" textLength="169.8936" x="310.0757" y="395.292">Business Logic Handlers</text></g><!--entity Database--><g class="entity" data-entity="Database" data-source-line="26" data-uid="ent0012" id="entity_Database"><rect fill="#F1F1F1" height="46.2969" rx="2.5" ry="2.5" style="stroke:#181818;stroke-width:0.5;" width="106.8008" x="267.5757" y="574.2969"/><rect fill="#F1F1F1" height="10" style="stroke:#181818;stroke-width:0.5;" width="15" x="354.3765" y="579.2969"/><rect fill="#F1F1F1" height="2" style="stroke:#181818;stroke-width:0.5;" width="4" x="352.3765" y="581.2969"/><rect fill="#F1F1F1" height="2" style="stroke:#181818;stroke-width:0.5;" width="4" x="352.3765" y="585.2969"/><text fill="#000000" font-family="sans-serif" font-size="14" lengthAdjust="spacing" textLength="66.8008" x="282.5757" y="607.292">Database</text></g><!--link Controller to Validator--><g class="link" data-entity-1="Controller" data-entity-2="Validator" data-source-line="6" data-uid="lnk4" id="link_Controller_Validator"><path d="M301.0757,90.2969 C301.0757,107.9569 301.0757,126.2369 301.0757,143.9769" fill="none" id="Controller-to-Validator" style="stroke:#181818;stroke-width:1;"/><polygon fill="#181818" points="301.0757,149.9769,305.0757,140.9769,301.0757,144.9769,297.0757,140.9769,301.0757,149.9769" style="stroke:#181818;stroke-width:1;"/><path d="M192.0757,125.1369 L192.0757,150.1369 L296.0757,150.1369 L296.0757,135.1369 L286.0757,125.1369 L192.0757,125.1369" fill="#FEFFDD" style="stroke:#181818;stroke-width:0.5;"/><path d="M286.0757,125.1369 L286.0757,135.1369 L296.0757,135.1369 L286.0757,125.1369" fill="#FEFFDD" style="stroke:#181818;stroke-width:0.5;"/><text fill="#000000" font-family="sans-serif" font-size="13" lengthAdjust="spacing" textLength="83.7383" x="198.0757" y="142.2038">all endpoints</text></g><!--link Validator to Data Access Layer--><g class="link" data-entity-1="Validator" data-entity-2="Data Access Layer" data-source-line="12" data-uid="lnk6" id="link_Validator_Data Access Layer"><path d="M272.3257,196.4269 C272.3257,255.1669 272.3257,403.6069 272.3257,462.2569" fill="none" id="Validator-to-Data Access Layer" style="stroke:#181818;stroke-width:1;"/><polygon fill="#181818" points="272.3257,468.2569,276.3257,459.2569,272.3257,463.2569,268.3257,459.2569,272.3257,468.2569" style="stroke:#181818;stroke-width:1;"/><path d="M43.3257,302.3369 L43.3257,327.3369 L267.3257,327.3369 L267.3257,312.3369 L257.3257,302.3369 L43.3257,302.3369" fill="#FEFFDD" style="stroke:#181818;stroke-width:0.5;"/><path d="M257.3257,302.3369 L257.3257,312.3369 L267.3257,312.3369 L257.3257,302.3369" fill="#FEFFDD" style="stroke:#181818;stroke-width:0.5;"/><text fill="#000000" font-family="sans-serif" font-size="13" lengthAdjust="spacing" textLength="203.2012" x="49.3257" y="319.4038">Create / Get / Delete endpoints</text></g><!--link Validator to Orchestrator--><g class="link" data-entity-1="Validator" data-entity-2="Orchestrator" data-source-line="18" data-uid="lnk8" id="link_Validator_Orchestrator"><path d="M334.0757,196.2969 C334.0757,213.9569 334.0757,232.2369 334.0757,249.9769" fill="none" id="Validator-to-Orchestrator" style="stroke:#181818;stroke-width:1;"/><polygon fill="#181818" points="334.0757,255.9769,338.0757,246.9769,334.0757,250.9769,330.0757,246.9769,334.0757,255.9769" style="stroke:#181818;stroke-width:1;"/><path d="M339.0757,196.1369 L339.0757,221.1369 L500.0757,221.1369 L500.0757,206.1369 L490.0757,196.1369 L339.0757,196.1369" fill="#FEFFDD" style="stroke:#181818;stroke-width:0.5;"/><path d="M490.0757,196.1369 L490.0757,206.1369 L500.0757,206.1369 L490.0757,196.1369" fill="#FEFFDD" style="stroke:#181818;stroke-width:0.5;"/><text fill="#000000" font-family="sans-serif" font-size="13" lengthAdjust="spacing" textLength="140.4863" x="345.0757" y="213.2038">Update endpoint only</text></g><!--link Orchestrator to Business Logic Handlers--><g class="link" data-entity-1="Orchestrator" data-entity-2="Business Logic Handlers" data-source-line="23" data-uid="lnk10" id="link_Orchestrator_Business Logic Handlers"><path d="M380.0757,302.2969 C380.0757,319.9569 380.0757,338.2369 380.0757,355.9769" fill="none" id="Orchestrator-to-Business Logic Handlers" style="stroke:#181818;stroke-width:1;"/><polygon fill="#181818" points="380.0757,361.9769,384.0757,352.9769,380.0757,356.9769,376.0757,352.9769,380.0757,361.9769" style="stroke:#181818;stroke-width:1;"/></g><!--link Business Logic Handlers to Data Access Layer--><g class="link" data-entity-1="Business Logic Handlers" data-entity-2="Data Access Layer" data-source-line="24" data-uid="lnk11" id="link_Business Logic Handlers_Data Access Layer"><path d="M350.5757,408.2969 C350.5757,425.9569 350.5757,444.2369 350.5757,461.9769" fill="none" id="Business Logic Handlers-to-Data Access Layer" style="stroke:#181818;stroke-width:1;"/><polygon fill="#181818" points="350.5757,467.9769,354.5757,458.9769,350.5757,462.9769,346.5757,458.9769,350.5757,467.9769" style="stroke:#181818;stroke-width:1;"/></g><!--link Data Access Layer to Database--><g class="link" data-entity-1="Data Access Layer" data-entity-2="Database" data-source-line="26" data-uid="lnk13" id="link_Data Access Layer_Database"><path d="M321.0757,514.2969 C321.0757,531.9569 321.0757,550.2369 321.0757,567.9769" fill="none" id="Data Access Layer-to-Database" style="stroke:#181818;stroke-width:1;"/><polygon fill="#181818" points="321.0757,573.9769,325.0757,564.9769,321.0757,568.9769,317.0757,564.9769,321.0757,573.9769" style="stroke:#181818;stroke-width:1;"/><path d="M326.0757,549.1369 L326.0757,574.1369 L457.0757,574.1369 L457.0757,559.1369 L447.0757,549.1369 L326.0757,549.1369" fill="#FEFFDD" style="stroke:#181818;stroke-width:0.5;"/><path d="M447.0757,549.1369 L447.0757,559.1369 L457.0757,559.1369 L447.0757,549.1369" fill="#FEFFDD" style="stroke:#181818;stroke-width:0.5;"/><text fill="#000000" font-family="sans-serif" font-size="13" lengthAdjust="spacing" textLength="110.957" x="332.0757" y="566.2038">CRUD operations</text></g><g class="legend" data-source-line="33"><rect fill="#DDDDDD" height="91.4844" rx="7.5" ry="7.5" style="stroke:#000000;stroke-width:1;" width="510.2949" x="12" y="637.5938"/><text fill="#000000" font-family="sans-serif" font-size="14" lengthAdjust="spacing" textLength="242.8945" x="17" y="655.5889">Controller: receives HTTP requests</text><text fill="#000000" font-family="sans-serif" font-size="14" lengthAdjust="spacing" textLength="378.2256" x="17" y="671.8857">Validator: coordinates validation schemas for payload</text><text fill="#000000" font-family="sans-serif" font-size="14" lengthAdjust="spacing" textLength="360.5205" x="17" y="688.1826">Orchestrator: coordinates complex logic for Update</text><text fill="#000000" font-family="sans-serif" font-size="14" lengthAdjust="spacing" textLength="500.2949" x="17" y="704.4795">Business Logic Handlers: implements actions mapped from action keys</text><text fill="#000000" font-family="sans-serif" font-size="14" lengthAdjust="spacing" textLength="331.3174" x="17" y="720.7764">Data Access Layer: interacts with the database</text></g><!--SRC=[ZPF1Rjim38RlUWhUrXs2t7COq2LREw10YpRTfSY1arXRY2ng4flLRp_AzXQtIu1T19iI-LCVVucNG735GTTxxtIXdozK11ue7xmbkBpx1WjOSvSuKXJOU6moTiPyWDiadYE65Uo9KW5o3HM8X6BAtiU4UWw2ZoHz8k0iBHlpjEOekUhb7ImMd-3fEmRlK3ZlJ6JHWx4cxGs601HTOX-b6Fs2kbs57toNjD-4qi8pPrXdrQJb5SboGu6qneNGgzHADr- -Re6VGLeQgduqCxrHVuE2S6ajbG8tsDFxFiRgi0Ijh-kaSBgpoYdGwx6rn-HgyWM6ml_PpssshKuWdq0oLVkZhV7Gp_JVfexLFhyKdK2z6ZVUmZL6f-ZBpfpTEKl5d0WU3__0Gk_9tJzkW1DfFsgKEQcPUo1GKpSgBHimU-dD5Cg-QSKS3RE2J9RyGLrslTtUwT_WrMB-8bo1PSxEHyLKu326LGQAWkcm32e9-y3ep9pMsqGxZJ4CP8vpD6UOhM1mPASFf03QuRRGOKgazyhSJJ5z9tqn_q3Kx2WAoMhoBw_6gUPm4z8ARSJn6m00]--></g></svg>